if (_typeface_js && _typeface_js.loadFace) _typeface_js.loadFace({"glyphs":{"S":{"x_min":42.1875,"x_max":596.171875,"ha":663,"o":"m 596 250 b 343 534 596 400 494 481 b 202 672 251 566 202 613 b 345 793 202 737 257 793 b 514 741 416 793 484 763 l 540 852 b 351 904 509 876 436 904 b 76 662 166 904 76 786 b 313 400 76 540 157 451 b 464 237 417 365 464 313 b 303 100 464 155 400 100 b 42 190 209 100 125 130 l 72 43 b 296 -16 117 12 202 -16 b 596 250 492 -16 596 91 "},"/":{"x_min":24.5,"x_max":815.3125,"ha":857,"o":"m 815 870 l 736 937 l 24 43 l 107 -25 l 815 870 "},"K":{"x_min":88.46875,"x_max":724.109375,"ha":756,"o":"m 724 0 l 355 448 l 715 886 l 563 886 l 220 468 l 220 886 l 88 886 l 88 0 l 220 0 l 220 415 l 562 0 l 724 0 "},"7":{"x_min":42.1875,"x_max":617.953125,"ha":642,"o":"m 617 886 l 42 886 l 42 777 l 441 777 l 111 0 l 245 0 l 617 886 "},"d":{"x_min":47.640625,"x_max":650.609375,"ha":747,"o":"m 650 0 l 650 989 l 526 989 l 526 603 b 372 644 495 624 439 644 b 47 314 189 644 47 508 b 349 -14 47 96 217 -14 b 540 50 434 -14 502 8 l 544 0 l 650 0 m 526 160 b 372 96 494 122 439 96 b 172 314 262 96 172 183 b 372 533 172 446 262 533 b 526 475 438 533 494 507 l 526 160 "},",":{"x_min":28.203125,"x_max":216.03125,"ha":274,"o":"m 216 69 b 133 152 216 101 156 152 b 49 69 107 152 49 100 b 116 2 49 47 92 6 b 28 -173 109 -40 77 -109 l 75 -181 b 216 69 139 -120 216 12 "},"Y":{"x_min":13.609375,"x_max":808.5,"ha":839,"o":"m 808 886 l 673 886 l 499 636 b 416 511 476 601 441 550 l 413 511 b 332 636 389 550 357 598 l 157 886 l 13 886 l 345 408 l 345 0 l 475 0 l 475 408 l 808 886 "},"E":{"x_min":88.46875,"x_max":604.328125,"ha":646,"o":"m 604 0 l 604 115 l 220 115 l 220 387 l 502 387 l 502 502 l 220 502 l 220 770 l 556 770 l 556 886 l 88 886 l 88 0 l 604 0 "},"y":{"x_min":1.359375,"x_max":617.953125,"ha":665,"o":"m 617 629 l 499 629 l 383 338 b 332 201 367 297 348 250 l 329 201 b 276 343 311 252 292 302 l 161 629 l 34 629 l 264 55 b 1 -250 191 -125 114 -206 l 76 -327 b 390 61 197 -272 298 -170 l 617 629 "},"\"":{"x_min":53.078125,"x_max":372.9375,"ha":435,"o":"m 372 988 l 262 988 l 284 670 l 349 670 l 372 988 m 163 988 l 53 988 l 73 670 l 138 670 l 163 988 "},"‹":{"x_min":-1.359375,"x_max":285.828125,"ha":321,"o":"m 285 219 b 161 384 254 280 215 331 b 285 549 215 437 254 490 l 215 622 b -1 384 160 530 88 451 b 215 147 88 320 160 238 l 285 219 "},"˙":{"x_min":201.4375,"x_max":343,"ha":556,"o":"m 343 786 b 272 859 343 811 296 859 b 201 786 250 859 201 811 b 272 713 201 763 250 713 b 343 786 296 713 343 763 "},"„":{"x_min":20.203125,"x_max":442.03125,"ha":492,"o":"m 442 69 b 359 152 442 101 380 152 b 276 69 333 152 276 100 b 342 2 276 48 318 6 b 254 -172 335 -38 303 -108 l 301 -181 b 442 69 365 -120 442 13 m 207 69 b 125 152 207 101 146 152 b 41 69 99 152 41 100 b 108 2 41 47 84 6 b 20 -173 101 -40 69 -109 l 67 -181 b 207 69 131 -120 207 12 "},"g":{"x_min":31.75,"x_max":586.96875,"ha":639,"o":"m 586 -111 b 414 104 586 4 523 65 l 245 163 b 227 186 231 169 227 180 b 306 220 227 213 257 220 b 536 433 450 220 536 320 b 514 529 536 473 526 508 b 576 545 535 530 566 538 l 552 650 b 461 627 531 638 497 627 b 382 636 431 627 403 630 b 306 645 362 641 339 645 b 75 433 170 645 75 556 b 166 262 75 363 109 304 b 97 159 132 244 97 205 l 159 95 b 31 -93 93 72 31 1 b 312 -319 31 -223 143 -319 b 586 -111 476 -319 586 -230 m 423 433 b 306 325 423 373 369 325 b 188 433 238 325 188 373 b 306 541 188 490 238 541 b 423 433 374 541 423 490 m 472 -109 b 309 -218 472 -159 418 -218 b 142 -93 197 -218 142 -155 b 269 29 142 -23 193 29 l 377 -2 b 472 -109 441 -22 472 -61 "},"–":{"x_min":54.4375,"x_max":735,"ha":806,"o":"m 735 330 l 735 438 l 54 438 l 54 330 l 735 330 "},"ƒ":{"x_min":-111.609375,"x_max":558.0625,"ha":583,"o":"m 558 895 b 469 904 532 901 502 904 b 182 637 313 904 210 815 l 181 629 l 76 629 l 62 550 l 167 550 l 62 -58 b -111 -245 44 -161 -35 -226 l -38 -320 b 183 -68 54 -300 160 -204 l 291 550 l 454 550 l 472 629 l 304 629 l 308 652 b 462 798 325 744 389 798 b 534 791 502 798 515 797 l 558 895 "},"e":{"x_min":47.953125,"x_max":620.96875,"ha":682,"o":"m 620 405 b 354 644 620 522 524 644 b 47 313 211 644 47 527 b 378 -15 47 118 203 -15 b 561 25 461 -15 517 1 l 592 159 b 395 95 535 118 473 95 b 175 283 250 95 179 205 l 547 283 l 616 354 b 620 405 619 368 620 386 m 495 402 b 494 386 495 397 495 391 l 184 386 b 361 536 200 473 283 536 b 495 402 442 536 495 465 "},"J":{"x_min":-83.03125,"x_max":261.328125,"ha":378,"o":"m 261 175 l 261 886 l 129 886 l 129 188 b -83 -91 129 22 51 -66 l 2 -180 b 261 175 119 -158 261 -47 "},"|":{"x_min":108.890625,"x_max":215.0625,"ha":331,"o":"m 215 -320 l 215 988 l 108 988 l 108 -320 l 215 -320 "},"˘":{"x_min":103.4375,"x_max":439.640625,"ha":556,"o":"m 439 779 l 370 852 b 272 822 370 852 325 822 b 172 852 220 822 172 852 l 103 779 b 272 713 103 779 176 713 b 439 779 366 713 439 779 "},"^":{"x_min":43.5625,"x_max":461.421875,"ha":515,"o":"m 461 769 b 253 954 377 806 306 877 b 43 769 200 877 127 806 l 121 694 b 253 787 170 717 209 742 b 385 694 295 742 336 717 l 461 769 "},"q":{"x_min":47.640625,"x_max":615.21875,"ha":711,"o":"m 615 -320 l 615 642 l 585 642 l 530 610 b 375 644 492 628 430 644 b 47 319 204 644 47 526 b 383 -14 47 111 208 -14 b 491 6 431 -14 465 -5 l 491 -320 l 615 -320 m 491 124 b 383 96 460 106 427 96 b 172 319 279 96 172 178 b 375 533 172 450 266 533 b 491 504 426 533 466 519 l 491 124 "},"b":{"x_min":81.671875,"x_max":649.25,"ha":711,"o":"m 649 319 b 313 644 649 517 488 644 b 205 624 261 644 225 633 l 205 989 l 81 989 l 81 43 b 296 -14 130 13 202 -14 b 649 319 504 -14 649 111 m 524 319 b 296 96 524 185 439 96 b 205 113 249 96 227 104 l 205 506 b 313 533 227 519 266 533 b 524 319 416 533 524 451 "},"D":{"x_min":88.46875,"x_max":824.828125,"ha":897,"o":"m 824 443 b 355 886 824 729 597 886 l 88 886 l 88 0 l 355 0 b 824 443 597 0 824 156 m 690 443 b 332 113 690 218 528 113 l 219 113 l 219 772 l 332 772 b 690 443 528 772 690 668 "},"z":{"x_min":37.890625,"x_max":530.5625,"ha":583,"o":"m 530 0 l 530 105 l 224 105 l 223 106 b 319 272 258 166 289 218 l 506 604 l 506 629 l 56 629 l 56 523 l 318 523 l 319 522 b 222 356 289 475 251 408 l 37 25 l 37 0 l 530 0 "},"ˆ":{"x_min":92.5625,"x_max":450.53125,"ha":556,"o":"m 450 779 b 272 936 378 809 317 869 b 92 779 225 869 164 809 l 157 714 b 272 794 201 734 235 755 b 385 714 307 755 341 734 l 450 779 "},"w":{"x_min":40.828125,"x_max":924.203125,"ha":985,"o":"m 924 629 l 812 629 l 715 362 b 672 230 702 323 686 277 l 669 230 b 627 362 656 277 643 318 l 529 629 l 439 629 l 343 362 b 299 230 328 322 313 272 l 296 230 b 254 362 284 273 269 319 l 157 629 l 40 629 l 273 -11 l 318 -11 l 430 294 b 480 447 446 337 464 390 l 483 447 b 534 291 499 391 517 338 l 646 -11 l 691 -11 l 924 629 "},"$":{"x_min":52.90625,"x_max":576.9375,"ha":650,"o":"m 576 247 b 322 529 576 380 472 470 b 178 670 229 565 178 609 b 323 794 178 736 233 794 b 496 747 390 794 447 775 l 521 855 b 344 904 476 881 425 900 l 344 1023 l 266 1023 l 266 900 b 56 659 133 876 56 780 b 297 400 56 541 152 452 b 454 236 398 363 454 305 b 284 94 454 159 391 94 b 80 166 197 94 127 130 l 52 51 b 266 -16 105 15 174 -12 l 266 -134 l 344 -134 l 344 -12 b 576 247 502 6 576 120 "},"\\":{"x_min":24.5,"x_max":815.3125,"ha":857,"o":"m 815 43 l 103 937 l 24 870 l 732 -25 l 815 43 "},"’":{"x_min":28.203125,"x_max":216.03125,"ha":274,"o":"m 216 912 b 133 995 216 944 156 995 b 49 912 107 995 49 943 b 116 845 49 890 92 850 b 28 669 109 802 77 733 l 75 661 b 216 912 139 722 216 855 "},"~":{"x_min":81.671875,"x_max":465.5,"ha":556,"o":"m 465 451 b 311 391 416 422 362 399 l 291 479 b 106 412 219 473 170 448 l 81 312 b 235 370 132 342 186 363 l 255 285 b 441 354 328 291 378 310 l 465 451 "},"-":{"x_min":54.4375,"x_max":394.71875,"ha":458,"o":"m 394 330 l 394 438 l 54 438 l 54 330 l 394 330 "},"Q":{"x_min":54.4375,"x_max":1030.359375,"ha":1050,"o":"m 1030 -58 b 937 -75 996 -72 967 -75 b 775 -34 894 -75 841 -66 b 668 11 721 -8 692 5 l 668 13 b 974 444 834 63 974 226 b 514 904 974 729 745 904 b 54 444 283 904 54 729 b 469 -13 54 175 254 5 b 681 -119 517 -36 597 -75 b 910 -180 759 -162 822 -180 b 947 -176 922 -180 936 -179 l 1030 -58 m 841 444 b 514 100 841 225 672 100 b 187 444 353 100 187 225 b 514 787 187 663 353 787 b 841 444 672 787 841 663 "},"M":{"x_min":74.859375,"x_max":1068.46875,"ha":1153,"o":"m 1068 0 l 990 886 l 909 886 l 680 430 b 574 202 643 356 601 270 l 571 202 b 462 430 543 270 498 361 l 231 886 l 149 886 l 74 0 l 191 0 l 225 400 b 239 598 230 452 236 530 l 242 598 b 338 395 272 533 308 454 l 543 -6 l 592 -6 l 793 395 b 891 601 822 452 864 538 l 894 601 b 907 400 896 536 902 459 l 943 0 l 1068 0 "},"C":{"x_min":54.4375,"x_max":778.5625,"ha":833,"o":"m 778 845 b 522 904 725 876 642 904 b 54 443 306 904 54 750 b 522 -16 54 140 303 -16 b 749 26 634 -16 695 -2 l 777 155 b 537 100 722 122 641 100 b 187 443 363 100 187 213 b 537 787 187 675 367 787 b 755 729 627 787 713 756 l 778 845 "},"[":{"x_min":76.21875,"x_max":364.78125,"ha":414,"o":"m 364 -302 l 364 -197 l 197 -197 l 197 866 l 364 866 l 364 972 l 76 972 l 76 -302 l 364 -302 "},"L":{"x_min":88.46875,"x_max":602.96875,"ha":622,"o":"m 602 0 l 602 115 l 220 115 l 220 886 l 88 886 l 88 0 l 602 0 "},"!":{"x_min":103.4375,"x_max":269.5,"ha":371,"o":"m 254 947 l 108 947 l 130 250 l 232 226 l 254 947 m 269 69 b 186 152 269 95 213 152 b 103 69 159 152 103 95 b 186 -15 103 41 159 -15 b 269 69 213 -15 269 41 "}," ":{"x_min":0,"x_max":0,"ha":319},"{":{"x_min":27.171875,"x_max":432.78125,"ha":483,"o":"m 432 -206 b 272 43 321 -206 272 -118 b 167 333 272 166 242 261 b 272 623 242 408 272 500 b 432 873 272 784 321 873 l 411 970 b 151 629 225 970 151 819 b 27 333 151 498 119 393 b 151 38 119 275 151 169 b 411 -304 151 -152 225 -304 l 432 -206 "},"X":{"x_min":34.03125,"x_max":747.25,"ha":797,"o":"m 747 0 l 470 456 l 735 886 l 594 886 l 458 663 b 396 554 438 630 413 588 l 393 554 b 330 663 375 588 349 631 l 196 886 l 46 886 l 311 448 l 34 0 l 174 0 l 318 233 b 386 350 338 266 367 313 l 389 350 b 455 233 409 312 434 269 l 597 0 l 747 0 "},"P":{"x_min":88.46875,"x_max":611.140625,"ha":649,"o":"m 611 637 b 349 886 611 805 472 886 l 88 886 l 88 0 l 219 0 l 219 388 l 349 388 b 611 637 472 388 611 469 m 476 637 b 326 502 476 544 404 502 l 219 502 l 219 772 l 326 772 b 476 637 404 772 476 729 "},"%":{"x_min":48.96875,"x_max":898.03125,"ha":967,"o":"m 436 705 b 242 904 436 822 353 904 b 48 705 131 904 48 822 b 242 505 48 586 131 505 b 436 705 353 505 436 586 m 859 869 l 800 920 l 85 18 l 145 -33 l 859 869 m 898 183 b 704 381 898 298 815 381 b 510 183 593 381 510 298 b 704 -16 510 63 593 -16 b 898 183 815 -16 898 63 m 336 705 b 242 601 336 641 292 601 b 149 705 190 601 149 641 b 242 806 149 768 190 806 b 336 705 292 806 336 768 m 797 183 b 704 77 797 119 755 77 b 610 183 653 77 610 119 b 704 283 610 245 653 283 b 797 183 755 283 797 245 "},"#":{"x_min":36.75,"x_max":548.53125,"ha":599,"o":"m 548 526 l 548 606 l 484 606 l 547 886 l 458 886 l 396 606 l 266 606 l 329 886 l 240 886 l 178 606 l 70 606 l 70 526 l 159 526 l 121 359 l 36 359 l 36 279 l 102 279 l 39 0 l 127 0 l 190 279 l 319 279 l 257 0 l 345 0 l 408 279 l 514 279 l 514 359 l 427 359 l 465 526 l 548 526 m 377 526 l 338 359 l 209 359 l 247 526 l 377 526 "},"_":{"x_min":-1.359375,"x_max":683.28125,"ha":694,"o":"m 683 -320 l 683 -212 l -1 -212 l -1 -320 l 683 -320 "},"+":{"x_min":54.4375,"x_max":563.5,"ha":631,"o":"m 563 330 l 563 438 l 367 438 l 367 629 l 251 629 l 251 438 l 54 438 l 54 330 l 251 330 l 251 140 l 367 140 l 367 330 l 563 330 "},"‚":{"x_min":28.203125,"x_max":216.03125,"ha":274,"o":"m 216 69 b 133 152 216 101 156 152 b 49 69 107 152 49 100 b 116 2 49 47 92 6 b 28 -173 109 -40 77 -109 l 75 -181 b 216 69 139 -120 216 12 "},")":{"x_min":32.671875,"x_max":310.328125,"ha":375,"o":"m 310 334 b 167 955 310 606 251 784 l 39 986 b 189 333 140 772 189 576 b 32 -288 189 102 123 -119 l 155 -318 b 310 334 251 -134 310 69 "},"'":{"x_min":53.078125,"x_max":163.328125,"ha":221,"o":"m 163 988 l 53 988 l 73 670 l 138 670 l 163 988 "},"}":{"x_min":41.21875,"x_max":446.828125,"ha":483,"o":"m 446 333 b 322 629 354 393 322 498 b 63 970 322 819 248 970 l 41 873 b 201 623 152 873 201 784 b 306 333 201 500 231 408 b 201 43 231 261 201 166 b 41 -206 201 -118 152 -206 l 63 -304 b 322 38 248 -304 322 -152 b 446 333 322 169 354 275 "},"‰":{"x_min":48.96875,"x_max":1389.390625,"ha":1468,"o":"m 1389 183 b 1194 381 1389 298 1306 381 b 1001 183 1084 381 1001 298 b 1194 -16 1001 63 1084 -16 b 1389 183 1306 -16 1389 63 m 436 705 b 242 904 436 822 353 904 b 48 705 131 904 48 822 b 242 505 48 586 131 505 b 436 705 353 505 436 586 m 859 869 l 800 920 l 85 18 l 145 -33 l 859 869 m 898 183 b 704 381 898 298 815 381 b 510 183 593 381 510 298 b 704 -16 510 63 593 -16 b 898 183 815 -16 898 63 m 1288 183 b 1194 77 1288 119 1245 77 b 1102 183 1143 77 1102 119 b 1194 283 1102 245 1143 283 b 1288 183 1245 283 1288 245 m 336 705 b 242 601 336 641 292 601 b 149 705 190 601 149 641 b 242 806 149 768 190 806 b 336 705 292 806 336 768 m 797 183 b 704 77 797 119 755 77 b 610 183 653 77 610 119 b 704 283 610 245 653 283 b 797 183 755 283 797 245 "},"˛":{"x_min":151.078125,"x_max":398.8125,"ha":556,"o":"m 398 -223 b 315 -245 375 -238 351 -245 b 236 -181 268 -245 236 -222 b 397 0 236 -102 315 -41 l 291 0 b 151 -191 215 -38 151 -109 b 296 -320 151 -275 217 -320 b 382 -301 336 -320 362 -313 l 398 -223 "},"a":{"x_min":48.03125,"x_max":588.390625,"ha":633,"o":"m 588 65 b 518 162 548 72 518 106 l 518 417 b 282 644 518 565 419 644 b 80 590 207 644 136 628 l 105 486 b 275 536 150 517 214 536 b 395 433 362 536 395 490 l 395 393 l 250 379 b 48 178 146 369 48 300 b 246 -14 48 76 124 -14 b 419 65 313 -14 376 7 b 509 -14 433 26 467 -5 l 588 65 m 395 233 b 252 92 395 154 317 92 b 166 176 203 92 166 132 b 272 278 166 222 199 271 l 395 289 l 395 233 "},"T":{"x_min":6.8125,"x_max":696.890625,"ha":718,"o":"m 696 770 l 696 886 l 6 886 l 6 770 l 285 770 l 285 0 l 417 0 l 417 770 l 696 770 "},"—":{"x_min":54.4375,"x_max":1075.28125,"ha":1153,"o":"m 1075 330 l 1075 438 l 54 438 l 54 330 l 1075 330 "},"=":{"x_min":54.4375,"x_max":563.5,"ha":631,"o":"m 563 450 l 563 558 l 54 558 l 54 450 l 563 450 m 563 211 l 563 319 l 54 319 l 54 211 l 563 211 "},"N":{"x_min":88.46875,"x_max":867.03125,"ha":975,"o":"m 867 -19 l 867 886 l 735 886 l 735 466 b 737 258 735 402 735 326 l 735 256 b 552 469 681 323 602 412 l 179 886 l 88 886 l 88 0 l 220 0 l 220 444 b 217 666 220 511 220 586 l 220 668 b 420 434 280 595 355 506 l 827 -19 l 867 -19 "},"˚":{"x_min":117.0625,"x_max":427.390625,"ha":556,"o":"m 427 856 b 272 1013 427 943 356 1013 b 117 856 187 1013 117 943 b 272 700 117 770 187 700 b 427 856 356 700 427 770 m 351 856 b 272 776 351 809 318 776 b 193 856 225 776 193 809 b 272 937 193 904 225 937 b 351 856 318 937 351 904 "},"⁄":{"x_min":24.5,"x_max":798.96875,"ha":840,"o":"m 798 869 l 739 921 l 24 18 l 84 -33 l 798 869 "},"2":{"x_min":39.46875,"x_max":604.328125,"ha":668,"o":"m 604 0 l 604 108 l 257 108 b 558 625 355 206 558 454 b 274 904 558 806 438 904 b 66 840 193 904 125 879 l 92 729 b 274 793 148 766 202 793 b 432 629 363 793 432 740 b 39 25 432 486 261 263 l 39 0 l 604 0 "},"j":{"x_min":-31.3125,"x_max":239.5625,"ha":336,"o":"m 239 826 b 164 904 239 852 189 904 b 88 826 138 904 88 852 b 164 750 88 801 138 750 b 239 826 189 750 239 801 m 227 -68 l 227 629 l 102 629 l 102 -58 b -31 -241 102 -166 49 -223 l 47 -320 b 227 -68 136 -300 227 -200 "},"Z":{"x_min":40.828125,"x_max":656.0625,"ha":706,"o":"m 656 0 l 656 112 l 223 112 l 221 113 b 363 359 264 184 318 280 l 641 854 l 641 886 l 62 886 l 62 773 l 457 773 l 458 772 b 315 525 416 704 360 604 l 40 31 l 40 0 l 656 0 "},"u":{"x_min":74.859375,"x_max":613.859375,"ha":703,"o":"m 613 0 l 613 629 l 490 629 l 490 225 b 341 93 490 159 441 93 b 198 225 238 93 198 159 l 198 629 l 74 629 l 74 212 b 308 -15 74 72 174 -15 b 499 62 405 -15 451 9 l 504 0 l 613 0 "},"1":{"x_min":24.5,"x_max":328.03125,"ha":460,"o":"m 328 0 l 328 904 l 47 877 l 24 772 l 204 790 l 204 0 l 328 0 "},"›":{"x_min":28.578125,"x_max":315.78125,"ha":321,"o":"m 315 384 b 99 622 225 451 153 530 l 28 549 b 151 384 58 490 98 437 b 28 219 98 331 58 280 l 99 147 b 315 384 153 238 225 320 "},"˜":{"x_min":81.671875,"x_max":465.5,"ha":556,"o":"m 465 879 b 311 819 416 850 362 827 l 291 907 b 106 840 219 901 170 876 l 81 740 b 235 798 132 770 186 791 l 255 713 b 441 782 328 719 378 738 l 465 879 "},"k":{"x_min":81.671875,"x_max":623.390625,"ha":638,"o":"m 623 0 l 345 318 l 615 629 l 468 629 l 205 329 l 205 988 l 81 988 l 81 0 l 205 0 l 205 295 l 462 0 l 623 0 "},"ˇ":{"x_min":92.5625,"x_max":450.53125,"ha":556,"o":"m 450 860 l 385 926 b 272 845 341 903 307 882 b 157 926 235 882 201 903 l 92 860 b 272 704 164 830 225 769 b 450 860 317 769 378 830 "},"<":{"x_min":53.078125,"x_max":378.390625,"ha":497,"o":"m 378 215 l 213 385 l 378 554 l 298 635 l 53 385 l 298 135 l 378 215 "},"t":{"x_min":12.25,"x_max":473.671875,"ha":500,"o":"m 473 629 l 255 629 l 255 822 l 133 756 l 133 629 l 12 629 l 12 527 l 133 527 l 133 181 b 334 -9 133 56 223 -9 b 390 -4 359 -9 377 -8 l 415 108 b 347 98 396 101 372 98 b 255 177 296 98 255 126 l 255 527 l 451 527 l 473 629 "},"W":{"x_min":20.421875,"x_max":1203.21875,"ha":1249,"o":"m 1203 886 l 1082 886 l 941 477 b 877 275 922 422 895 345 l 875 275 b 813 477 856 347 833 420 l 673 886 l 560 886 l 421 477 b 359 275 401 418 378 347 l 356 275 b 292 477 338 347 313 419 l 152 886 l 20 886 l 328 -12 l 372 -12 l 534 461 b 609 698 558 527 582 602 l 612 698 b 687 461 639 602 664 529 l 849 -12 l 894 -12 l 1203 886 "},"v":{"x_min":34.03125,"x_max":600.25,"ha":647,"o":"m 600 629 l 484 629 l 374 351 b 323 213 357 311 338 261 l 321 213 b 270 351 306 261 287 311 l 159 629 l 34 629 l 291 -11 l 341 -11 l 600 629 "},">":{"x_min":108.890625,"x_max":434.1875,"ha":497,"o":"m 434 385 l 189 635 l 108 554 l 273 385 l 108 215 l 189 135 l 434 385 "},"s":{"x_min":36.9375,"x_max":462.96875,"ha":521,"o":"m 462 172 b 269 384 462 281 393 338 b 179 468 208 406 179 427 b 265 538 179 509 213 538 b 404 498 332 538 377 518 l 427 604 b 266 644 404 619 337 644 b 60 463 144 644 60 569 b 250 258 60 362 128 304 b 339 166 307 237 339 211 b 241 91 339 123 299 91 b 36 169 166 91 87 125 l 65 30 b 238 -15 102 5 166 -15 b 462 172 388 -15 462 70 "},"B":{"x_min":88.46875,"x_max":654.703125,"ha":724,"o":"m 654 269 b 494 498 654 383 574 475 b 574 654 544 520 574 588 b 330 886 574 809 446 886 l 88 886 l 88 0 l 370 0 b 654 269 504 0 654 86 m 441 654 b 308 538 441 572 379 538 l 219 538 l 219 772 l 308 772 b 441 654 379 772 441 737 m 519 269 b 343 113 519 161 434 113 l 219 113 l 219 425 l 343 425 b 519 269 434 425 519 375 "},"…":{"x_min":50.359375,"x_max":696.890625,"ha":763,"o":"m 696 69 b 612 152 696 95 641 152 b 529 69 585 152 529 95 b 612 -15 529 41 585 -15 b 696 69 641 -15 696 41 m 455 69 b 372 152 455 95 400 152 b 289 69 344 152 289 95 b 372 -15 289 41 344 -15 b 455 69 400 -15 455 41 m 216 69 b 133 152 216 95 160 152 b 50 69 106 152 50 95 b 133 -15 50 41 106 -15 b 216 69 160 -15 216 41 "},"?":{"x_min":29.9375,"x_max":479.109375,"ha":544,"o":"m 479 712 b 213 962 479 870 367 962 b 29 897 137 962 70 937 l 54 781 b 215 851 98 823 144 851 b 349 727 302 851 349 783 b 261 547 349 654 317 606 b 175 320 206 488 175 404 b 185 247 175 290 179 270 l 287 223 b 283 304 283 244 283 266 b 352 468 283 356 302 412 b 479 712 427 551 479 619 m 325 69 b 242 152 325 95 270 152 b 159 69 215 152 159 95 b 242 -15 159 41 215 -15 b 325 69 270 -15 325 41 "},"H":{"x_min":88.46875,"x_max":800.328125,"ha":907,"o":"m 800 0 l 800 886 l 668 886 l 668 502 l 220 502 l 220 886 l 88 886 l 88 0 l 220 0 l 220 387 l 668 387 l 668 0 l 800 0 "},"c":{"x_min":47.640625,"x_max":579.828125,"ha":636,"o":"m 579 597 b 382 644 528 626 464 644 b 47 313 213 644 47 520 b 382 -15 47 108 213 -15 b 544 16 443 -15 499 -4 l 570 140 b 393 95 500 106 450 95 b 172 313 280 95 172 179 b 390 533 172 450 277 533 b 556 486 450 533 500 522 l 579 597 "},"&":{"x_min":52.984375,"x_max":841.078125,"ha":839,"o":"m 841 0 l 676 168 b 770 352 724 231 753 302 l 687 438 b 594 251 668 379 636 311 l 405 444 b 572 680 492 490 572 577 b 334 904 572 816 450 904 b 107 680 223 904 107 816 b 214 468 107 606 152 529 b 52 222 114 415 52 340 b 329 -16 52 93 167 -16 b 596 79 442 -16 529 23 l 673 0 l 841 0 m 454 679 b 325 526 454 627 406 569 b 225 679 263 587 225 631 b 334 795 225 734 273 795 b 454 679 400 795 454 736 m 514 162 b 336 93 462 120 402 93 b 178 229 248 93 178 154 b 295 386 178 302 216 345 l 514 162 "},"˝":{"x_min":46.28125,"x_max":498.171875,"ha":556,"o":"m 498 886 l 432 954 b 250 734 390 876 321 790 l 345 714 b 498 886 408 765 451 808 m 294 886 l 228 954 b 46 734 186 876 117 790 l 142 714 b 294 886 204 765 247 808 "},"I":{"x_min":108.890625,"x_max":240.921875,"ha":357,"o":"m 240 0 l 240 886 l 108 886 l 108 0 l 240 0 "},"•":{"x_min":68.0625,"x_max":469.578125,"ha":549,"o":"m 469 384 b 269 587 469 505 382 587 b 68 384 156 587 68 505 b 269 183 68 265 156 183 b 469 384 382 183 469 265 "},"ˉ":{"x_min":147,"x_max":397.4375,"ha":556,"o":"m 397 729 l 397 836 l 147 836 l 147 729 l 397 729 "},"G":{"x_min":54.421875,"x_max":847.953125,"ha":946,"o":"m 847 79 l 847 438 l 522 438 l 522 330 l 722 330 l 722 145 b 538 100 681 116 619 100 b 187 441 362 100 187 212 b 537 787 187 673 367 787 b 778 716 628 787 714 758 l 803 833 b 522 904 739 875 642 904 b 54 443 306 904 54 750 b 530 -16 54 143 296 -16 b 847 79 660 -16 764 11 "},"(":{"x_min":57.171875,"x_max":334.828125,"ha":375,"o":"m 334 959 l 210 987 b 57 334 115 805 57 600 b 200 -286 57 62 115 -115 l 328 -315 b 178 336 225 -102 178 94 b 334 959 178 568 243 790 "},"`":{"x_min":127.9375,"x_max":423.3125,"ha":556,"o":"m 423 782 b 155 928 337 807 228 857 l 127 814 b 355 714 205 759 269 737 l 423 782 "},"U":{"x_min":88.46875,"x_max":796.25,"ha":903,"o":"m 796 312 l 796 886 l 668 886 l 668 326 b 443 102 668 194 594 102 b 220 326 292 102 220 194 l 220 886 l 88 886 l 88 312 b 442 -16 88 105 239 -16 b 796 312 645 -16 796 105 "},"◊":{"x_min":88.46875,"x_max":694.171875,"ha":813,"o":"m 694 384 l 390 693 l 88 384 l 390 76 l 694 384 m 579 384 l 390 191 l 202 384 l 390 576 l 579 384 "},"F":{"x_min":88.46875,"x_max":568.9375,"ha":600,"o":"m 568 770 l 568 886 l 88 886 l 88 0 l 220 0 l 220 387 l 514 387 l 514 502 l 220 502 l 220 770 l 568 770 "},"r":{"x_min":88.46875,"x_max":443.71875,"ha":474,"o":"m 443 530 l 420 637 b 210 530 328 637 243 608 l 205 629 l 88 629 l 88 0 l 212 0 l 212 297 b 431 530 212 476 332 530 b 443 530 435 530 438 530 "},":":{"x_min":50.359375,"x_max":216.421875,"ha":274,"o":"m 216 559 b 133 644 216 587 160 644 b 50 559 106 644 50 587 b 133 476 50 533 106 476 b 216 559 160 476 216 533 m 216 69 b 133 152 216 95 160 152 b 50 69 106 152 50 95 b 133 -15 50 41 106 -15 b 216 69 160 -15 216 41 "},"x":{"x_min":40.828125,"x_max":564.859375,"ha":618,"o":"m 564 0 l 374 323 l 555 629 l 421 629 l 343 491 b 304 423 329 468 317 445 l 302 423 b 265 491 289 447 277 469 l 186 629 l 49 629 l 231 318 l 40 0 l 174 0 l 258 144 b 299 218 269 163 287 193 l 302 218 b 341 144 314 193 329 165 l 426 0 l 564 0 "},"*":{"x_min":40.828125,"x_max":547.171875,"ha":578,"o":"m 547 718 l 487 819 l 325 750 l 338 955 l 225 929 l 236 750 l 53 825 l 40 711 l 210 666 l 84 508 l 187 459 l 281 611 l 390 440 l 466 526 l 353 666 l 547 718 "},"†":{"x_min":10.890625,"x_max":439.640625,"ha":461,"o":"m 439 515 l 439 641 l 285 616 l 288 773 l 163 773 l 166 616 l 10 641 l 10 515 l 168 540 l 187 -320 l 262 -320 l 283 540 l 439 515 "},"V":{"x_min":13.609375,"x_max":745.890625,"ha":775,"o":"m 745 886 l 620 886 l 460 463 b 387 252 435 400 411 326 l 385 252 b 313 463 362 327 336 402 l 152 886 l 13 886 l 359 -12 l 401 -12 l 745 886 "},"h":{"x_min":81.671875,"x_max":620.671875,"ha":710,"o":"m 620 0 l 620 417 b 386 644 620 557 521 644 b 205 578 296 644 250 622 b 205 989 205 575 205 989 l 81 989 l 81 0 l 205 0 l 205 404 b 353 536 205 469 254 536 b 496 404 457 536 496 469 l 496 0 l 620 0 "},"0":{"x_min":54.4375,"x_max":699.609375,"ha":769,"o":"m 699 444 b 377 904 699 765 537 904 b 54 444 212 904 54 765 b 377 -16 54 120 212 -16 b 699 444 537 -16 699 120 m 574 444 b 377 95 574 184 475 95 b 179 444 277 95 179 184 b 377 791 179 701 277 791 b 574 444 475 791 574 701 "},".":{"x_min":50.359375,"x_max":216.421875,"ha":274,"o":"m 216 69 b 133 152 216 95 160 152 b 50 69 106 152 50 95 b 133 -15 50 41 106 -15 b 216 69 160 -15 216 41 "},"”":{"x_min":28.203125,"x_max":450.03125,"ha":513,"o":"m 450 912 b 367 995 450 944 388 995 b 284 912 341 995 284 943 b 350 845 284 891 326 850 b 262 670 343 804 311 734 l 309 661 b 450 912 373 722 450 856 m 215 912 b 133 995 215 944 154 995 b 49 912 107 995 49 943 b 116 845 49 890 92 850 b 28 669 109 802 77 733 l 75 661 b 215 912 139 722 215 855 "},"@":{"x_min":54.4375,"x_max":988.171875,"ha":1064,"o":"m 988 532 b 597 906 988 738 839 906 b 54 370 300 906 54 667 b 415 -14 54 138 210 -14 b 556 20 487 -14 534 3 l 583 130 b 434 81 548 98 492 81 b 156 370 289 81 156 167 b 588 813 156 620 356 813 b 890 535 769 813 890 696 b 739 288 890 395 797 288 b 713 330 724 288 713 300 b 714 345 713 334 713 339 l 760 641 b 609 695 736 666 681 695 b 294 371 454 695 294 566 b 449 188 294 252 371 188 b 626 284 530 188 593 223 b 721 188 630 220 673 188 b 988 532 895 188 988 382 m 643 589 l 624 475 b 481 284 604 356 541 284 b 404 374 434 284 404 314 b 601 598 404 503 498 598 b 643 589 619 598 634 593 "},"f":{"x_min":13.609375,"x_max":499.53125,"ha":465,"o":"m 499 973 b 394 994 466 987 431 994 b 118 687 216 994 118 893 l 118 629 l 13 629 l 13 527 l 118 527 l 118 0 l 242 0 l 242 527 l 400 527 l 420 629 l 242 629 l 242 726 b 371 888 242 809 287 888 b 477 866 408 888 446 881 l 499 973 "},";":{"x_min":28.203125,"x_max":216.03125,"ha":274,"o":"m 216 559 b 133 644 216 587 160 644 b 49 559 105 644 49 587 b 133 476 49 533 105 476 b 216 559 160 476 216 533 m 216 69 b 133 152 216 101 156 152 b 49 69 107 152 49 100 b 116 2 49 47 92 6 b 28 -173 109 -40 77 -109 l 75 -181 b 216 69 139 -120 216 12 "},"“":{"x_min":51.96875,"x_max":473.796875,"ha":511,"o":"m 473 980 l 424 990 b 286 738 360 927 286 794 b 369 653 286 705 345 653 b 452 738 393 653 452 706 b 385 805 452 759 408 801 b 473 980 390 846 423 916 m 238 980 l 190 988 b 51 737 126 927 51 794 b 135 653 51 705 111 653 b 217 737 159 653 217 706 b 151 803 217 759 174 801 b 238 980 156 846 189 916 "},"i":{"x_min":89.828125,"x_max":240.921875,"ha":336,"o":"m 240 826 b 164 904 240 852 190 904 b 89 826 140 904 89 852 b 164 750 89 801 140 750 b 240 826 190 750 240 801 m 227 0 l 227 629 l 102 629 l 102 0 l 227 0 "},"6":{"x_min":55.015625,"x_max":638.9375,"ha":707,"o":"m 638 273 b 359 559 638 433 525 559 b 222 512 302 559 253 544 b 580 858 286 645 404 772 l 457 916 b 55 305 225 794 55 541 b 350 -15 55 97 192 -15 b 638 273 516 -15 638 107 m 513 272 b 353 95 513 166 442 95 b 181 279 263 95 181 179 b 184 330 181 293 181 318 b 351 448 210 416 274 448 b 513 272 447 448 513 372 "},"A":{"x_min":27.21875,"x_max":815.3125,"ha":860,"o":"m 815 0 l 445 898 l 397 898 l 27 0 l 156 0 l 250 229 l 588 229 l 681 0 l 815 0 m 543 336 l 295 336 l 381 552 b 417 661 393 581 408 623 l 420 661 b 457 552 431 623 445 581 l 543 336 "},"‘":{"x_min":51.96875,"x_max":238.4375,"ha":274,"o":"m 238 980 l 190 989 b 51 737 126 927 51 794 b 135 654 51 705 111 654 b 218 737 159 654 218 707 b 151 804 218 759 174 800 b 238 980 156 845 189 915 "},"n":{"x_min":74.859375,"x_max":613.859375,"ha":703,"o":"m 613 0 l 613 417 b 379 644 613 557 514 644 b 189 567 283 644 236 619 l 183 629 l 74 629 l 74 0 l 198 0 l 198 404 b 347 536 198 469 247 536 b 490 404 450 536 490 469 l 490 0 l 613 0 "},"O":{"x_min":54.4375,"x_max":974.5625,"ha":1050,"o":"m 974 444 b 514 904 974 729 745 904 b 54 444 283 904 54 729 b 514 -16 54 156 283 -16 b 974 444 745 -16 974 156 m 841 444 b 514 100 841 225 672 100 b 187 444 353 100 187 225 b 514 787 187 663 353 787 b 841 444 672 787 841 663 "},"3":{"x_min":42.1875,"x_max":521.3125,"ha":588,"o":"m 521 262 b 336 526 521 419 421 505 b 450 704 390 541 450 613 b 219 904 450 822 352 904 b 53 861 156 904 104 890 l 74 754 b 215 794 126 784 163 794 b 326 693 277 794 326 755 b 166 552 326 626 255 570 l 190 448 b 215 450 200 450 210 450 b 396 277 314 450 396 369 b 200 95 396 151 295 95 b 42 138 149 95 92 109 l 70 11 b 205 -15 115 -6 161 -15 b 521 262 408 -15 521 102 "},"]":{"x_min":49,"x_max":337.5625,"ha":414,"o":"m 337 -302 l 337 972 l 49 972 l 49 866 l 216 866 l 216 -197 l 49 -197 l 49 -302 l 337 -302 "},"m":{"x_min":74.859375,"x_max":989.53125,"ha":1086,"o":"m 989 0 l 989 442 b 771 644 989 558 896 644 b 549 555 658 644 592 604 b 377 644 518 603 453 644 b 189 567 280 644 236 619 l 183 629 l 74 629 l 74 0 l 198 0 l 198 430 b 334 535 198 487 247 535 b 470 430 424 535 470 493 l 470 0 l 594 0 l 594 430 b 730 535 594 487 643 535 b 865 430 819 535 865 493 l 865 0 l 989 0 "},"9":{"x_min":54.0625,"x_max":637.984375,"ha":707,"o":"m 637 583 b 342 904 637 791 500 904 b 54 615 176 904 54 781 b 333 329 54 455 167 329 b 470 376 390 329 439 344 b 112 30 406 243 288 116 l 235 -27 b 637 583 467 94 637 347 m 511 609 b 508 558 511 595 511 570 b 341 440 482 472 418 440 b 179 616 245 440 179 516 b 339 793 179 722 250 793 b 511 609 429 793 511 709 "},"l":{"x_min":102.078125,"x_max":308.96875,"ha":365,"o":"m 308 61 b 225 165 270 68 225 106 l 225 988 l 102 988 l 102 148 b 224 -25 102 27 183 -13 l 308 61 "},"8":{"x_min":54.4375,"x_max":635.640625,"ha":704,"o":"m 635 245 b 470 487 635 379 529 465 b 597 679 529 513 597 581 b 344 904 597 811 488 904 b 92 679 200 904 92 811 b 219 484 92 581 157 509 b 54 245 161 461 54 379 b 344 -16 54 80 186 -16 b 635 245 502 -16 635 80 m 479 676 b 351 540 479 616 431 563 b 213 676 270 562 213 615 b 345 797 213 745 273 797 b 479 676 420 797 479 745 m 510 250 b 340 94 510 159 432 94 b 171 250 250 94 171 159 b 334 422 171 341 261 400 b 510 250 411 401 510 341 "},"p":{"x_min":81.671875,"x_max":684.640625,"ha":747,"o":"m 684 315 b 382 644 684 533 514 644 b 191 579 298 644 230 621 l 187 629 l 81 629 l 81 -320 l 205 -320 l 205 26 b 359 -14 236 5 292 -14 b 684 315 543 -14 684 121 m 559 315 b 359 96 559 183 469 96 b 205 154 294 96 238 122 l 205 469 b 359 533 238 507 292 533 b 559 315 469 533 559 446 "},"4":{"x_min":17.6875,"x_max":612.5,"ha":689,"o":"m 612 237 l 612 340 l 510 340 l 510 886 l 427 886 l 17 337 l 39 237 l 386 237 l 386 0 l 510 0 l 510 237 l 612 237 m 387 663 b 386 555 386 625 386 590 l 386 340 l 147 340 l 307 554 b 385 665 333 588 360 625 l 387 663 "},"‡":{"x_min":10.890625,"x_max":439.640625,"ha":461,"o":"m 439 -195 l 439 -69 l 268 -94 l 283 540 l 439 515 l 439 641 l 285 616 l 288 773 l 163 773 l 166 616 l 10 641 l 10 515 l 168 540 l 182 -94 l 10 -69 l 10 -195 l 183 -170 l 187 -320 l 262 -320 l 265 -170 l 439 -195 "},"R":{"x_min":88.46875,"x_max":769.03125,"ha":771,"o":"m 769 0 l 472 409 b 624 637 556 444 624 519 b 363 886 624 805 485 886 l 88 886 l 88 0 l 219 0 l 219 388 l 341 388 l 615 0 l 769 0 m 490 637 b 340 502 490 544 417 502 l 219 502 l 219 772 l 340 772 b 490 637 417 772 490 729 "},"o":{"x_min":47.640625,"x_max":702.328125,"ha":765,"o":"m 702 313 b 375 644 702 509 559 644 b 47 313 191 644 47 509 b 375 -15 47 119 191 -15 b 702 313 559 -15 702 119 m 577 313 b 375 95 577 183 483 95 b 172 313 266 95 172 183 b 375 533 172 445 266 533 b 577 313 483 533 577 445 "},"5":{"x_min":66.5625,"x_max":557.921875,"ha":625,"o":"m 557 271 b 262 566 557 454 424 566 b 227 563 251 566 238 564 l 232 778 l 470 778 l 493 886 l 114 886 l 100 431 b 250 454 141 446 186 454 b 432 272 346 454 432 386 b 246 96 432 161 346 96 b 66 145 186 96 125 110 l 95 17 b 253 -14 129 0 186 -14 b 557 271 453 -14 557 118 "}}}
